<svg xmlns="http://www.w3.org/2000/svg" width="139" height="46" viewBox="0 0 139 46">
    <g fill="none" fill-rule="evenodd">
        <g fill-rule="nonzero">
            <g>
                <g>
                    <path fill="#000" d="M8.908 44.998c-.359 0-.709-.005-1.064-.013-.737-.01-1.472-.074-2.2-.192-.677-.117-1.334-.334-1.948-.644-.609-.308-1.163-.712-1.644-1.196-.487-.479-.892-1.034-1.2-1.643-.311-.614-.527-1.271-.639-1.95-.12-.729-.186-1.466-.196-2.205C.01 36.906 0 36.08 0 36.08V8.905s.01-.814.017-1.053c.01-.738.074-1.474.195-2.202.112-.68.328-1.34.64-1.955.306-.61.71-1.165 1.194-1.645.483-.485 1.04-.89 1.65-1.203.612-.31 1.268-.525 1.944-.64C6.37.088 7.107.024 7.847.014L8.908 0h120.898l1.074.015c.733.009 1.464.073 2.186.191.684.116 1.346.334 1.966.645 1.221.629 2.214 1.624 2.841 2.847.307.61.519 1.265.63 1.94.122.733.19 1.475.204 2.22.004.333.004.69.004 1.047.009.44.009.86.009 1.284v24.62c0 .428 0 .845-.01 1.266 0 .382 0 .733-.004 1.093-.014.731-.08 1.46-.201 2.18-.11.684-.324 1.347-.635 1.965-.31.603-.714 1.153-1.195 1.63-.48.487-1.037.893-1.646 1.203-.618.313-1.28.531-1.963.647-.727.119-1.462.183-2.199.192-.344.008-.705.013-1.055.013l-1.275.002-119.63-.002z" transform="translate(-602.000000, -374.000000) translate(602.000000, 374.875130)"/>
                    <g fill="#FFF">
                        <g>
                            <path d="M17.408 13.623c.025-1.995 1.072-3.839 2.772-4.884-1.078-1.54-2.818-2.48-4.695-2.539-1.976-.207-3.89 1.183-4.898 1.183-1.026 0-2.576-1.162-4.245-1.128-2.196.071-4.193 1.29-5.262 3.21-2.275 3.939-.578 9.728 1.602 12.912 1.09 1.559 2.365 3.3 4.032 3.239 1.632-.068 2.241-1.04 4.21-1.04 1.952 0 2.524 1.04 4.225 1 1.751-.028 2.854-1.566 3.907-3.14.783-1.11 1.386-2.338 1.786-3.637-2.08-.88-3.432-2.918-3.434-5.176zM14.194 4.106C15.15 2.96 15.62 1.487 15.505 0c-1.458.153-2.806.85-3.773 1.952-.956 1.088-1.44 2.51-1.346 3.955 1.479.015 2.882-.649 3.808-1.8z" transform="translate(-602.000000, -374.000000) translate(602.000000, 374.875130) translate(10.703626, 9.229247) translate(0.000000, 0.000000)"/>
                        </g>
                        <g>
                            <path d="M9.264 10.904H3.696l-1.337 3.948H0L5.274.244h2.45L13 14.852H10.6l-1.336-3.948zM4.273 9.082h4.413L6.511 2.673H6.45L4.273 9.082zM24.39 9.527c0 3.31-1.772 5.437-4.445 5.437-1.382.072-2.683-.652-3.351-1.864h-.05v5.276h-2.187V4.2h2.116v1.772h.04c.698-1.204 2-1.928 3.392-1.883 2.703 0 4.485 2.137 4.485 5.437zm-2.247 0c0-2.156-1.115-3.574-2.815-3.574-1.67 0-2.794 1.448-2.794 3.574 0 2.146 1.124 3.584 2.794 3.584 1.7 0 2.815-1.408 2.815-3.584zM36.113 9.527c0 3.31-1.772 5.437-4.445 5.437-1.382.072-2.684-.652-3.351-1.864h-.051v5.276H26.08V4.2h2.116v1.772h.04c.697-1.204 2-1.928 3.391-1.883 2.704 0 4.486 2.137 4.486 5.437zm-2.248 0c0-2.156-1.114-3.574-2.814-3.574-1.67 0-2.794 1.448-2.794 3.574 0 2.146 1.123 3.584 2.794 3.584 1.7 0 2.814-1.408 2.814-3.584zM43.86 10.782c.162 1.449 1.57 2.4 3.493 2.4 1.842 0 3.168-.951 3.168-2.258 0-1.134-.8-1.813-2.693-2.278l-1.893-.456c-2.682-.648-3.928-1.902-3.928-3.938 0-2.52 2.197-4.252 5.316-4.252 3.087 0 5.203 1.731 5.274 4.252H50.39c-.132-1.458-1.337-2.338-3.098-2.338s-2.966.89-2.966 2.186c0 1.033.77 1.64 2.652 2.106l1.61.395c2.997.709 4.242 1.913 4.242 4.05 0 2.733-2.177 4.445-5.64 4.445-3.239 0-5.426-1.672-5.568-4.314h2.238zM57.549 1.68v2.521h2.025v1.732H57.55v5.871c0 .913.405 1.338 1.296 1.338.24-.005.48-.021.719-.051v1.721c-.4.075-.807.109-1.215.101-2.156 0-2.997-.81-2.997-2.875V5.933h-1.549V4.2h1.55v-2.52h2.196zM60.747 9.527c0-3.35 1.974-5.457 5.052-5.457 3.088 0 5.052 2.106 5.052 5.457 0 3.36-1.954 5.457-5.052 5.457s-5.052-2.096-5.052-5.457zm7.877 0c0-2.298-1.054-3.655-2.825-3.655-1.772 0-2.824 1.367-2.824 3.655 0 2.308 1.052 3.655 2.824 3.655 1.771 0 2.825-1.347 2.825-3.655zM72.654 4.201h2.085v1.813h.05c.291-1.167 1.36-1.97 2.562-1.924.252-.001.503.026.75.081v2.045c-.319-.097-.65-.141-.983-.132-.643-.026-1.265.23-1.703.701-.438.472-.648 1.11-.575 1.75v6.317h-2.186V4.202zM88.18 11.724c-.294 1.933-2.177 3.26-4.586 3.26-3.098 0-5.022-2.076-5.022-5.406 0-3.34 1.934-5.508 4.93-5.508 2.947 0 4.8 2.025 4.8 5.254v.75h-7.523v.131c-.07.793.204 1.578.752 2.155.548.577 1.318.891 2.114.862 1.06.1 2.06-.51 2.46-1.498h2.075zm-7.39-3.179h5.325c.04-.712-.22-1.41-.716-1.922-.496-.513-1.183-.796-1.897-.781-.719-.004-1.41.279-1.92.786-.509.508-.794 1.198-.792 1.917z" transform="translate(-602.000000, -374.000000) translate(602.000000, 374.875130) translate(10.703626, 9.229247) translate(28.769910, 10.765049)"/>
                        </g>
                    </g>
                </g>
                <g fill="#FFF">
                    <g>
                        <path d="M2.535.346c.929-.067 1.838.286 2.477.962.64.676.943 1.603.826 2.526 0 2.242-1.212 3.531-3.303 3.531H0V.345h2.535zM1.09 6.373h1.324c.663.04 1.309-.222 1.758-.712.449-.49.653-1.156.557-1.813.09-.655-.118-1.315-.566-1.8-.448-.487-1.09-.747-1.75-.71H1.09v5.035zM7.07 4.714c-.09-.95.364-1.868 1.175-2.371.81-.503 1.836-.503 2.646 0 .81.503 1.266 1.422 1.175 2.371.093.95-.362 1.871-1.173 2.375-.811.505-1.838.505-2.65 0-.81-.504-1.266-1.424-1.173-2.375zm3.92 0c0-1.148-.515-1.82-1.42-1.82-.909 0-1.42.672-1.42 1.82 0 1.158.511 1.824 1.42 1.824.905 0 1.42-.67 1.42-1.824zM18.708 7.365L17.623 7.365 16.528 3.464 16.446 3.464 15.355 7.365 14.281 7.365 12.821 2.068 13.881 2.068 14.83 6.11 14.908 6.11 15.998 2.068 17 2.068 18.09 6.11 18.172 6.11 19.117 2.068 20.162 2.068zM21.39 2.068h1.007v.841h.078c.271-.62.906-.998 1.58-.943.523-.04 1.034.16 1.39.544.358.383.52.908.444 1.426v3.43h-1.045V4.197c0-.85-.37-1.274-1.143-1.274-.355-.017-.698.122-.941.38-.244.258-.362.61-.324.962v3.1H21.39V2.067zM27.555 0L28.6 0 28.6 7.365 27.555 7.365zM30.054 4.714c-.091-.95.364-1.868 1.175-2.371.81-.503 1.836-.503 2.646 0 .81.503 1.266 1.422 1.175 2.371.093.95-.362 1.871-1.173 2.375-.812.504-1.838.504-2.65 0-.81-.504-1.266-1.424-1.173-2.375zm3.92 0c0-1.148-.515-1.82-1.42-1.82-.91 0-1.42.672-1.42 1.82 0 1.158.51 1.824 1.42 1.824.905 0 1.42-.67 1.42-1.824zM36.151 5.867c0-.953.71-1.503 1.97-1.581l1.435-.083v-.457c0-.56-.37-.876-1.084-.876-.584 0-.988.215-1.104.59h-1.012c.106-.91.962-1.494 2.164-1.494 1.328 0 2.077.66 2.077 1.78v3.62h-1.006V6.62h-.083c-.342.543-.95.861-1.591.831-.45.047-.898-.098-1.235-.4-.336-.302-.53-.733-.531-1.185zm3.405-.453v-.442l-1.293.082c-.73.05-1.06.297-1.06.764 0 .477.413.755.982.755.336.034.672-.07.93-.289.26-.218.418-.532.441-.87zM41.971 4.714c0-1.674.86-2.734 2.199-2.734.676-.031 1.309.331 1.624.93h.078V0h1.046v7.365h-1.002v-.837h-.083c-.34.594-.98.95-1.663.924-1.348 0-2.199-1.06-2.199-2.738zm1.08 0c0 1.124.53 1.8 1.415 1.8.881 0 1.426-.686 1.426-1.795 0-1.104-.55-1.8-1.426-1.8-.88 0-1.415.68-1.415 1.795zM51.243 4.714c-.09-.95.365-1.868 1.175-2.371.81-.503 1.836-.503 2.647 0 .81.503 1.265 1.422 1.175 2.371.092.95-.363 1.871-1.174 2.375-.811.505-1.838.505-2.65 0-.81-.504-1.265-1.424-1.173-2.375zm3.921 0c0-1.148-.516-1.82-1.42-1.82-.91 0-1.42.672-1.42 1.82 0 1.158.51 1.824 1.42 1.824.904 0 1.42-.67 1.42-1.824zM57.642 2.068h1.007v.841h.078c.271-.62.906-.998 1.58-.943.523-.04 1.034.16 1.391.544.357.383.52.908.443 1.426v3.43h-1.045V4.197c0-.85-.37-1.274-1.143-1.274-.355-.017-.698.122-.941.38s-.362.61-.324.962v3.1h-1.046V2.067zM68.048.75v1.342h1.148v.88h-1.148v2.725c0 .554.23.797.75.797.133 0 .266-.008.398-.024v.871c-.188.034-.378.052-.568.053-1.163 0-1.626-.408-1.626-1.43V2.973h-.841v-.881h.84V.749h1.047zM70.624 0h1.036v2.92h.083c.285-.626.93-1.005 1.615-.95.52-.028 1.024.177 1.377.559.353.382.517.9.448 1.416v3.42h-1.047V4.203c0-.846-.394-1.275-1.133-1.275-.363-.03-.722.103-.979.362s-.387.618-.354.981v3.094h-1.046V0zM81.278 5.935c-.293 1-1.26 1.645-2.295 1.532-.706.02-1.385-.274-1.856-.8-.472-.527-.688-1.234-.59-1.934-.095-.702.12-1.41.589-1.94.468-.532 1.144-.833 1.853-.827 1.473 0 2.363 1.007 2.363 2.67v.365h-3.74v.059c-.034.393.1.781.369 1.07.268.29.646.451 1.04.447.512.061 1.01-.192 1.261-.642h1.006zm-3.677-1.707h2.676c.026-.36-.1-.714-.348-.975-.249-.261-.596-.406-.956-.398-.366-.004-.717.139-.975.397-.259.259-.402.61-.397.976z" transform="translate(-602.000000, -374.000000) translate(602.000000, 374.875130) translate(40.936577, 8.896005) translate(0.000000, 0.000000)"/>
                    </g>
                </g>
            </g>
        </g>
    </g>
</svg>
