<svg xmlns="http://www.w3.org/2000/svg" width="153" height="45" viewBox="0 0 153 45">
    <defs>
        <linearGradient id="iqudcy694a" x1="60.99%" x2="26.536%" y1="4.946%" y2="71.879%">
            <stop offset="0%" stop-color="#00A0FF"/>
            <stop offset="1%" stop-color="#00A1FF"/>
            <stop offset="26%" stop-color="#00BEFF"/>
            <stop offset="51%" stop-color="#00D2FF"/>
            <stop offset="76%" stop-color="#00DFFF"/>
            <stop offset="100%" stop-color="#00E3FF"/>
        </linearGradient>
        <linearGradient id="j3rby7fy3b" x1="107.685%" x2="-130.64%" y1="50%" y2="50%">
            <stop offset="0%" stop-color="#FFE000"/>
            <stop offset="41%" stop-color="#FFBD00"/>
            <stop offset="78%" stop-color="orange"/>
            <stop offset="100%" stop-color="#FF9C00"/>
        </linearGradient>
        <linearGradient id="ybu4903n3c" x1="86.271%" x2="-50.18%" y1="30.873%" y2="136.109%">
            <stop offset="0%" stop-color="#FF3A44"/>
            <stop offset="100%" stop-color="#C31162"/>
        </linearGradient>
        <linearGradient id="y7flpznzfd" x1="-18.825%" x2="42.086%" y1="-11.91%" y2="35.079%">
            <stop offset="0%" stop-color="#32A071"/>
            <stop offset="7%" stop-color="#2DA771"/>
            <stop offset="48%" stop-color="#15CF74"/>
            <stop offset="80%" stop-color="#06E775"/>
            <stop offset="100%" stop-color="#00F076"/>
        </linearGradient>
    </defs>
    <g fill="none" fill-rule="evenodd">
        <g fill-rule="nonzero">
            <g>
                <g transform="translate(-760.000000, -375.000000) translate(602.000000, 374.875130) translate(158.719876, 0.124870)">
                    <rect width="151.875" height="45" fill="#000" rx="5"/>
                    <path fill="#FFF" stroke="#FFF" stroke-width=".2" d="M86.918 24.469c.886-.023 1.742.312 2.377.923l.142.146h.08v-.788h1.946v8.572c0 3.533-2.037 4.984-4.5 4.984-1.793.024-3.422-1.017-4.158-2.638l-.084-.197 1.823-.753c.387 1.004 1.342 1.675 2.419 1.698 1.514 0 2.477-.905 2.549-2.604l.004-.208v-.687h-.079c-.63.732-1.554 1.145-2.52 1.125-2.553-.123-4.56-2.23-4.56-4.786 0-2.557 2.007-4.663 4.56-4.787zm47.317.281l2.497 6.098h.068l2.407-6.098h2.34l-5.703 13.264h-2.25l2.137-4.736-3.746-8.528h2.25zm-57.578-.281c1.278-.025 2.51.47 3.416 1.372.906.901 1.407 2.131 1.388 3.409.006 2.647-2.134 4.798-4.781 4.804-2.647.006-4.798-2.135-4.804-4.782-.006-2.646 2.135-4.797 4.781-4.803zm-10.484 0c1.277-.025 2.51.47 3.415 1.372.906.901 1.407 2.131 1.388 3.409.006 2.647-2.134 4.798-4.781 4.804-2.647.006-4.798-2.135-4.804-4.782-.006-2.646 2.135-4.797 4.782-4.803zm34.413 0c1.794.066 3.369 1.19 4.021 2.847l.074.201.237.495-6.402 2.644c.399.916 1.32 1.493 2.318 1.452.897.008 1.737-.428 2.247-1.156l.104-.16 1.631 1.124c-1.162 1.76-3.344 2.546-5.361 1.93-2.017-.616-3.389-2.487-3.369-4.596-.077-1.241.362-2.46 1.215-3.365.852-.906 2.041-1.419 3.285-1.416zm-47.16-5.293l.282.005c1.804-.028 3.548.632 4.878 1.841l.218.207-1.429 1.428c-.991-.95-2.317-1.471-3.69-1.45-2.982 0-5.4 2.417-5.4 5.4 0 2.909 2.301 5.281 5.183 5.395l.217.004c1.406.06 2.772-.48 3.758-1.485.597-.641.98-1.451 1.099-2.316l.026-.237h-4.86v-2.026h6.84c.053.313.085.628.097.944l.004.317c.056 1.754-.574 3.46-1.755 4.758-1.353 1.402-3.24 2.16-5.186 2.081-2.724.106-5.288-1.286-6.68-3.629-1.394-2.342-1.394-5.26 0-7.602 1.344-2.262 3.78-3.639 6.398-3.635h0zm73.89 5.24l.203.008.045.022c2.323 0 4.15 1.344 4.258 3.672l.005.22v5.412h-2.024v-1.125h-.068c-.58.907-1.603 1.432-2.678 1.373-.877.067-1.745-.223-2.404-.806-.66-.583-1.054-1.409-1.094-2.288 0-2.048 2.047-3.173 4.05-3.173.668 0 1.329.141 1.936.415l.258.125v-.135c-.054-.54-.323-1.036-.746-1.377-.423-.34-.965-.497-1.504-.434-.735-.064-1.44.282-1.843.89l-.081.134-1.857-.776c.677-1.34 2.054-2.171 3.543-2.157h0zm-4.916-4.729V33.75h-2.093V19.687h2.093zm-7.864 0c1.635-.117 3.197.688 4.05 2.087.853 1.4.853 3.158 0 4.557-.814 1.335-2.275 2.13-3.827 2.097l-.223-.01H111.6v5.332h-2.104V19.687h5.04zm-19.474 0V33.75H92.96V19.687h2.103zM67.03 26.556c-1.11-.435-2.372-.147-3.184.725-.812.873-1.008 2.153-.494 3.228.514 1.076 1.633 1.728 2.822 1.645.746-.018 1.453-.336 1.962-.882.508-.547.774-1.275.737-2.021-.002-1.192-.734-2.26-1.843-2.695zm10.485 0c-1.11-.435-2.372-.147-3.184.725-.812.873-1.008 2.153-.494 3.228.514 1.076 1.633 1.728 2.822 1.645.746-.018 1.453-.336 1.962-.882.508-.547.774-1.275.737-2.021-.002-1.192-.734-2.26-1.843-2.695zm50.354 2.875c-1.058 0-2.25.383-2.25 1.508 0 .794.847 1.15 1.518 1.188l.124.004.045.023c1.272-.026 2.329-.987 2.475-2.25-.584-.326-1.244-.49-1.912-.473zm-40.77-3.071c-1.53.095-2.722 1.364-2.722 2.897 0 1.532 1.192 2.801 2.721 2.897.732-.029 1.42-.355 1.904-.903s.724-1.27.661-2c.056-.726-.186-1.444-.67-1.99-.483-.544-1.167-.87-1.895-.901zm13.724-.037l-.157.003c-.706.029-1.37.341-1.842.866-.43.478-.667 1.094-.672 1.732l.005.192 4.275-1.777c-.308-.614-.93-1.002-1.609-1.016h0zm13.76-4.677H111.6v4.793h2.936l.045.022c1.33 0 2.408-1.078 2.408-2.408 0-1.276-.994-2.32-2.25-2.402l-.158-.005zM80.335 7.729c.931-.015 1.827.355 2.475 1.023.604.614.954 1.429.988 2.284l.002.214c.03.934-.328 1.838-.99 2.498-.656.656-1.546 1.025-2.475 1.025-.928 0-1.819-.369-2.475-1.025-.61-.61-.963-1.427-.99-2.283v-.215c-.03-.934.329-1.838.99-2.498.643-.676 1.543-1.048 2.475-1.023zm-28.923.281c.405.167.767.425 1.057.754l-.596.596c-.415-.5-1.025-.794-1.669-.812l-.176.002c-.71-.003-1.391.282-1.886.792-.494.51-.76 1.198-.736 1.908-.015 1.072.617 2.048 1.601 2.474.985.426 2.128.218 2.9-.528.346-.375.55-.861.573-1.372H50.03v-.81h3.273c.026.167.04.336.045.506.038.834-.267 1.646-.843 2.25-.597.616-1.41.97-2.262.992l-.213-.002c-.933.02-1.833-.346-2.487-1.012-.673-.654-1.044-1.56-1.023-2.498-.024-.943.347-1.852 1.023-2.509 1.025-1.001 2.551-1.29 3.87-.731zm34.66-.135l3.286 5.254V7.875h.866v6.75h-.9l-3.431-5.501v5.501h-.867v-6.75h1.047zm-12.048 0v.832h-1.879v5.918h-.866V8.707h-1.89v-.832h4.635zm-5.726 0v6.75h-.867v-6.75h.867zm-4.174 0v.832H62.19v5.918h-.866V8.707h-1.89v-.832h4.691zm-5.625 0v.832h-3.038v2.138h2.768v.81h-2.767v2.138H58.5v.832h-3.915v-6.75H58.5zm21.791.673c-.689 0-1.35.276-1.834.767-.442.476-.694 1.095-.71 1.74l.002.195c-.022.72.25 1.42.754 1.935.484.49 1.144.767 1.833.767.69 0 1.35-.276 1.834-.767.504-.516.776-1.214.754-1.935.01-.727-.279-1.427-.799-1.935-.484-.49-1.145-.767-1.834-.767z"/>
                    <g>
                        <path fill="url(#iqudcy694a)" d="M.757.459C.398.902.221 1.465.262 2.034v24.885c-.038.574.152 1.14.529 1.575l.078.09 13.905-13.94v-.337L.836.38.757.459z" transform="translate(10.988023, 8.023897)"/>
                        <path fill="url(#j3rby7fy3b)" d="M19.387 19.291l-4.613-4.646v-.338l4.613-4.646.101.068 5.524 3.127c1.575.889 1.575 2.351 0 3.251l-5.501 3.128-.124.056z" transform="translate(10.988023, 8.023897)"/>
                        <path fill="url(#ybu4903n3c)" d="M19.522 19.235l-4.748-4.759L.757 28.494c.656.583 1.635.617 2.329.078l16.436-9.337" transform="translate(10.988023, 8.023897)"/>
                        <path fill="url(#y7flpznzfd)" d="M19.522 9.729L3.086.39C2.396-.155 1.414-.126.757.46l14.017 14.017 4.748-4.747z" transform="translate(10.988023, 8.023897)"/>
                        <path fill="#000" d="M19.387 19.122L3.086 28.404c-.666.502-1.584.502-2.25 0l-.079.078.079.09c.666.503 1.584.503 2.25 0l16.436-9.337-.135-.113z" opacity=".2" transform="translate(10.988023, 8.023897)"/>
                        <path fill="#000" d="M.757 28.336C.396 27.89.219 27.322.262 26.75v.169c-.038.574.152 1.14.529 1.575l.078-.08-.112-.078zM25.012 15.939l-5.625 3.183.101.113 5.524-3.139c.664-.28 1.122-.902 1.192-1.62-.142.65-.585 1.192-1.192 1.463z" opacity=".12" transform="translate(10.988023, 8.023897)"/>
                        <path fill="#FFF" d="M3.086.549l21.926 12.465c.607.27 1.05.813 1.192 1.462-.07-.718-.528-1.339-1.192-1.62L3.086.391C1.522-.509.262.234.262 2.034v.168C.262.402 1.522-.34 3.086.55z" opacity=".25" transform="translate(10.988023, 8.023897)"/>
                    </g>
                </g>
            </g>
        </g>
    </g>
</svg>
