<?xml version="1.0" encoding="UTF-8" standalone="no"?>
<!-- Created with Inkscape (http://www.inkscape.org/) -->

<svg
   width="945"
   height="256"
   viewBox="0 0 250.03125 67.733333"
   version="1.1"
   id="svg1"
   xml:space="preserve"
   inkscape:version="1.3.2 (091e20e, 2023-11-25, custom)"
   sodipodi:docname="behjärta data logo.svg"
   inkscape:export-filename="img\behjärta logo.png"
   inkscape:export-xdpi="96"
   inkscape:export-ydpi="96"
   xmlns:inkscape="http://www.inkscape.org/namespaces/inkscape"
   xmlns:sodipodi="http://sodipodi.sourceforge.net/DTD/sodipodi-0.dtd"
   xmlns="http://www.w3.org/2000/svg"
   xmlns:svg="http://www.w3.org/2000/svg"><sodipodi:namedview
     id="namedview1"
     pagecolor="#ffffff"
     bordercolor="#000000"
     borderopacity="0.25"
     inkscape:showpageshadow="2"
     inkscape:pageopacity="0.0"
     inkscape:pagecheckerboard="0"
     inkscape:deskcolor="#d1d1d1"
     inkscape:document-units="mm"
     inkscape:zoom="0.70710678"
     inkscape:cx="388.20162"
     inkscape:cy="457.49809"
     inkscape:window-width="1920"
     inkscape:window-height="991"
     inkscape:window-x="2391"
     inkscape:window-y="652"
     inkscape:window-maximized="1"
     inkscape:current-layer="g8" /><defs
     id="defs1"><rect
       x="-1812"
       y="6124"
       width="2068"
       height="724"
       id="rect32" /><inkscape:path-effect
       effect="bspline"
       id="path-effect20"
       is_visible="true"
       lpeversion="1.3"
       weight="33.333333"
       steps="2"
       helper_size="0"
       apply_no_weight="true"
       apply_with_weight="true"
       only_selected="false"
       uniform="false" /><inkscape:path-effect
       effect="bspline"
       id="path-effect19"
       is_visible="true"
       lpeversion="1.3"
       weight="33.333333"
       steps="2"
       helper_size="0"
       apply_no_weight="true"
       apply_with_weight="true"
       only_selected="false"
       uniform="false" /><inkscape:path-effect
       effect="bspline"
       id="path-effect18"
       is_visible="true"
       lpeversion="1.3"
       weight="33.333333"
       steps="2"
       helper_size="0"
       apply_no_weight="true"
       apply_with_weight="true"
       only_selected="false"
       uniform="false" /><inkscape:path-effect
       effect="bspline"
       id="path-effect17"
       is_visible="true"
       lpeversion="1.3"
       weight="33.333333"
       steps="2"
       helper_size="0"
       apply_no_weight="true"
       apply_with_weight="true"
       only_selected="false"
       uniform="false" /><clipPath
       clipPathUnits="userSpaceOnUse"
       id="clipPath5"><path
         style="fill:#ffff00;fill-opacity:1;stroke-width:1.5"
         d="m -105.28401,49.735092 14.765194,-25.57406 14.129628,25.408677"
         id="path5"
         sodipodi:nodetypes="ccc" /></clipPath></defs><g
     inkscape:label="Lager 1"
     inkscape:groupmode="layer"
     id="layer1"><g
       id="g8"
       transform="matrix(0.85288819,0,0,0.85333347,-0.90264157,6.5319846e-7)"><g
         id="g7"
         transform="translate(-3.1750001)"><path
           style="font-weight:600;font-size:48px;font-family:Lexend;-inkscape-font-specification:'Lexend Semi-Bold';white-space:pre;fill:#01579b;stroke-width:5.66929"
           d="m -1796.544,6168.88 c -2.752,0 -5.152,-0.56 -7.2,-1.68 -2.048,-1.12 -3.648,-2.656 -4.8,-4.608 -1.152,-1.952 -1.728,-4.192 -1.728,-6.72 0,-1.952 0.32,-3.744 0.96,-5.376 0.64,-1.632 1.536,-3.04 2.688,-4.224 1.152,-1.216 2.512,-2.144 4.08,-2.784 1.6,-0.672 3.328,-1.008 5.184,-1.008 1.728,0 3.328,0.32 4.8,0.96 1.472,0.608 2.736,1.488 3.792,2.64 1.088,1.12 1.92,2.448 2.496,3.984 0.576,1.536 0.832,3.216 0.768,5.04 l -0.048,2.112 h -20.4 l -1.104,-4.176 h 15.888 l -0.768,0.864 v -1.056 c -0.064,-0.864 -0.352,-1.648 -0.864,-2.352 -0.48,-0.704 -1.104,-1.248 -1.872,-1.632 -0.768,-0.384 -1.632,-0.576 -2.592,-0.576 -1.408,0 -2.608,0.272 -3.6,0.816 -0.96,0.544 -1.696,1.344 -2.208,2.4 -0.512,1.056 -0.768,2.336 -0.768,3.84 0,1.536 0.32,2.864 0.96,3.984 0.672,1.12 1.6,2 2.784,2.64 1.216,0.608 2.64,0.912 4.272,0.912 1.12,0 2.144,-0.176 3.072,-0.528 0.928,-0.352 1.92,-0.96 2.976,-1.824 l 3.264,4.56 c -0.928,0.832 -1.952,1.536 -3.072,2.112 -1.12,0.544 -2.272,0.96 -3.456,1.248 -1.184,0.288 -2.352,0.432 -3.504,0.432 z m 16.08,-0.48 v -35.52 h 6.72 v 15.312 l -1.344,0.576 c 0.352,-1.152 0.976,-2.192 1.872,-3.12 0.928,-0.96 2.032,-1.728 3.312,-2.304 1.28,-0.576 2.624,-0.864 4.032,-0.864 1.92,0 3.52,0.384 4.8,1.152 1.312,0.768 2.288,1.936 2.928,3.504 0.672,1.536 1.008,3.44 1.008,5.712 v 15.552 h -6.816 v -15.024 c 0,-1.152 -0.16,-2.112 -0.48,-2.88 -0.32,-0.768 -0.816,-1.328 -1.488,-1.68 -0.64,-0.384 -1.44,-0.544 -2.4,-0.48 -0.768,0 -1.488,0.128 -2.16,0.384 -0.64,0.224 -1.2,0.56 -1.68,1.008 -0.448,0.448 -0.816,0.96 -1.104,1.536 -0.256,0.576 -0.384,1.2 -0.384,1.872 v 15.264 h -3.36 -1.968 z m 27.312,9.888 -2.544,-5.28 c 1.376,0 2.48,-0.192 3.312,-0.576 0.832,-0.384 1.424,-1.024 1.776,-1.92 0.384,-0.864 0.576,-2.016 0.576,-3.456 v -24.048 h 6.816 v 25.68 c 0,2.112 -0.4,3.872 -1.2,5.28 -0.768,1.408 -1.888,2.48 -3.36,3.216 -1.472,0.736 -3.264,1.104 -5.376,1.104 z m 6.672,-40.512 c -1.312,0 -2.336,-0.32 -3.072,-0.96 -0.736,-0.64 -1.104,-1.552 -1.104,-2.736 0,-1.088 0.368,-1.968 1.104,-2.64 0.768,-0.704 1.792,-1.056 3.072,-1.056 1.312,0 2.336,0.336 3.072,1.008 0.736,0.64 1.104,1.536 1.104,2.688 0,1.12 -0.384,2.016 -1.152,2.688 -0.736,0.672 -1.744,1.008 -3.024,1.008 z m 19.728,31.104 c -2.112,0 -4.016,-0.576 -5.712,-1.728 -1.696,-1.152 -3.04,-2.72 -4.032,-4.704 -0.992,-1.984 -1.488,-4.256 -1.488,-6.816 0,-2.56 0.496,-4.816 1.488,-6.768 1.024,-1.984 2.4,-3.536 4.128,-4.656 1.728,-1.152 3.696,-1.728 5.904,-1.728 1.248,0 2.384,0.192 3.408,0.576 1.056,0.352 1.968,0.848 2.736,1.488 0.8,0.64 1.472,1.376 2.016,2.208 0.544,0.832 0.928,1.728 1.152,2.688 l -1.44,-0.24 v -6.192 h 6.768 v 25.392 h -6.864 v -6.096 l 1.536,-0.144 c -0.256,0.896 -0.672,1.744 -1.248,2.544 -0.576,0.8 -1.296,1.52 -2.16,2.16 -0.832,0.608 -1.776,1.104 -2.832,1.488 -1.056,0.352 -2.176,0.528 -3.36,0.528 z m 1.872,-5.904 c 1.28,0 2.4,-0.304 3.36,-0.912 0.96,-0.608 1.696,-1.456 2.208,-2.544 0.544,-1.12 0.816,-2.416 0.816,-3.888 0,-1.44 -0.272,-2.704 -0.816,-3.792 -0.512,-1.088 -1.248,-1.936 -2.208,-2.544 -0.96,-0.64 -2.08,-0.96 -3.36,-0.96 -1.248,0 -2.352,0.32 -3.312,0.96 -0.928,0.608 -1.664,1.456 -2.208,2.544 -0.544,1.088 -0.816,2.352 -0.816,3.792 0,1.472 0.272,2.768 0.816,3.888 0.544,1.088 1.28,1.936 2.208,2.544 0.96,0.608 2.064,0.912 3.312,0.912 z m 19.872,5.424 v -25.392 h 6.576 l 0.24,8.16 -1.152,-1.68 c 0.384,-1.312 1.008,-2.496 1.872,-3.552 0.864,-1.088 1.872,-1.936 3.024,-2.544 1.184,-0.608 2.416,-0.912 3.696,-0.912 0.544,0 1.072,0.048 1.584,0.144 0.512,0.096 0.944,0.208 1.296,0.336 l -1.824,7.488 c -0.384,-0.192 -0.848,-0.352 -1.392,-0.48 -0.544,-0.16 -1.104,-0.24 -1.68,-0.24 -0.768,0 -1.488,0.144 -2.16,0.432 -0.64,0.256 -1.2,0.64 -1.68,1.152 -0.48,0.48 -0.864,1.056 -1.152,1.728 -0.256,0.672 -0.384,1.408 -0.384,2.208 v 13.152 z m 24.4321,0 v -31.824 h 6.816 v 31.824 z m -4.752,-19.296 v -6.096 h 16.752 v 6.096 z m 30.48,19.776 c -2.112,0 -4.016,-0.576 -5.712,-1.728 -1.696,-1.152 -3.04,-2.72 -4.032,-4.704 -0.992,-1.984 -1.488,-4.256 -1.488,-6.816 0,-2.56 0.496,-4.816 1.488,-6.768 1.024,-1.984 2.4,-3.536 4.128,-4.656 1.728,-1.152 3.696,-1.728 5.904,-1.728 1.248,0 2.384,0.192 3.408,0.576 1.056,0.352 1.968,0.848 2.736,1.488 0.8,0.64 1.472,1.376 2.016,2.208 0.544,0.832 0.928,1.728 1.152,2.688 l -1.44,-0.24 v -6.192 h 6.768 v 25.392 h -6.864 v -6.096 l 1.536,-0.144 c -0.256,0.896 -0.672,1.744 -1.248,2.544 -0.576,0.8 -1.296,1.52 -2.16,2.16 -0.832,0.608 -1.776,1.104 -2.832,1.488 -1.056,0.352 -2.176,0.528 -3.36,0.528 z m 1.872,-5.904 c 1.28,0 2.4,-0.304 3.36,-0.912 0.96,-0.608 1.696,-1.456 2.208,-2.544 0.544,-1.12 0.816,-2.416 0.816,-3.888 0,-1.44 -0.272,-2.704 -0.816,-3.792 -0.512,-1.088 -1.248,-1.936 -2.208,-2.544 -0.96,-0.64 -2.08,-0.96 -3.36,-0.96 -1.248,0 -2.352,0.32 -3.312,0.96 -0.928,0.608 -1.664,1.456 -2.208,2.544 -0.544,1.088 -0.816,2.352 -0.816,3.792 0,1.472 0.272,2.768 0.816,3.888 0.544,1.088 1.28,1.936 2.208,2.544 0.96,0.608 2.064,0.912 3.312,0.912 z"
           id="text32"
           aria-label="ehjärta"
           sodipodi:nodetypes="sssssccsccsccccccccsscssccsscccssccccccssccsccsscccccsccccccscsccscscssscscscsssssccsccsccccccccsccssscsccscssccscccccccsscccscccsccccccccccccssssccsccsccccccccsccssscsccscssccs"
           transform="matrix(1.2901111,0,0,1.2897648,2413.0705,-7889.1634)" /><path
           style="fill:#80cbc4;fill-opacity:1;stroke-width:0.0906794"
           id="path32-2-0"
           sodipodi:type="arc"
           sodipodi:cx="181.68471"
           sodipodi:cy="22.55372"
           sodipodi:rx="5.5653229"
           sodipodi:ry="5.5638289"
           sodipodi:start="0.082759149"
           sodipodi:end="0.082062776"
           sodipodi:open="true"
           sodipodi:arc-type="arc"
           d="m 187.23098,23.013653 a 5.5653229,5.5638289 0 0 1 -6.00536,5.084934 5.5653229,5.5638289 0 0 1 -5.08735,-6.002868 5.5653229,5.5638289 0 0 1 6.0036,-5.087024 5.5653229,5.5638289 0 0 1 5.08943,6.001096" /><path
           style="fill:#80cbc4;fill-opacity:1;stroke-width:0.0906794"
           id="path32-2-0-1"
           sodipodi:type="arc"
           sodipodi:cx="196.11482"
           sodipodi:cy="22.55372"
           sodipodi:rx="5.5653229"
           sodipodi:ry="5.5638289"
           sodipodi:start="0.082759149"
           sodipodi:end="0.082062776"
           sodipodi:open="true"
           sodipodi:arc-type="arc"
           d="m 201.6611,23.013653 a 5.5653229,5.5638289 0 0 1 -6.00537,5.084934 5.5653229,5.5638289 0 0 1 -5.08734,-6.002868 5.5653229,5.5638289 0 0 1 6.00359,-5.087024 5.5653229,5.5638289 0 0 1 5.08944,6.001096" /></g><g
         id="g6"
         inkscape:export-filename="img\fav.png"
         inkscape:export-xdpi="75.193123"
         inkscape:export-ydpi="75.193123"><rect
           style="fill:#80cbc4;fill-opacity:1;stroke-width:0.346468"
           id="rect8-2-8"
           width="9.0842457"
           height="45.409039"
           x="1.0583344"
           y="22.70451" /><g
           id="g1"
           transform="translate(-0.52916663)"><g
             id="g2"
             transform="matrix(0.92492474,0,0,0.92492474,1.9414193,5.4087056)"><path
               id="path9-6"
               style="fill:#80cbc4;fill-opacity:1;stroke-width:0.525338"
               d="m 37.244795,65.434192 5.687866,-9.690928 c -0.138313,-0.08694 -0.274621,-0.176861 -0.408825,-0.269754 -0.142522,-0.08962 -0.282839,-0.182314 -0.421153,-0.27818 -0.543128,-0.367802 -1.052982,-0.781504 -1.523847,-1.236548 -0.0081,-0.0092 -0.01634,-0.01834 -0.02446,-0.02755 -0.453625,-0.46 -0.866559,-0.957574 -1.234392,-1.487168 -0.09591,-0.135026 -0.188827,-0.272134 -0.27863,-0.411125 -0.360116,-0.546349 -0.67152,-1.122538 -0.930706,-1.722124 -0.0052,-0.01458 -0.01013,-0.02905 -0.01513,-0.04362 -0.240143,-0.594926 -0.428569,-1.209086 -0.562973,-1.835736 -0.03587,-0.158125 -0.06826,-0.317043 -0.09712,-0.476556 -0.121073,-0.636267 -0.18642,-1.281754 -0.195241,-1.929223 L 25.859641,46 c 0.0079,0.949345 0.07638,1.897301 0.205164,2.83802 0.03097,0.240013 0.06585,0.479531 0.104636,0.718354 0.143425,0.928228 0.345382,1.846542 0.604768,2.749787 0.0083,0.02667 0.01663,0.05323 0.02505,0.0799 0.273218,0.888275 0.601661,1.759102 0.983626,2.607326 0.101329,0.229405 0.206467,0.457223 0.315412,0.683258 0.3976,0.8395 0.847217,1.653818 1.346346,2.438396 0.03027,0.04471 0.06054,0.08942 0.09111,0.133935 0.503238,0.755827 1.05208,1.480823 1.643617,2.171219 0.169383,0.200457 0.342274,0.398039 0.518573,0.592448 0.610983,0.682465 1.263357,1.327556 1.953419,1.931702 0.06395,0.05323 0.12809,0.105978 0.192635,0.158521 0.681442,0.569151 1.396158,1.098151 2.140342,1.584323 0.225711,0.1495 0.454128,0.294936 0.68515,0.436306 0.190231,0.106276 0.382065,0.209874 0.575302,0.310797 z" /><path
               id="path14-3"
               style="fill:#01579b;fill-opacity:1;stroke-width:0.52702"
               d="m 49.6389,22.7044 c -12.5427,0 -22.7106,10.1652 -22.7106,22.7046 l 10e-5,0.0034 11.3548,0.0258 c 0.0088,0.6531 0.074,1.3042 0.1948,1.9461 -0.1223,-0.6515 -0.1874,-1.3125 -0.1944,-1.9753 0,-6.2697 5.0839,-11.3523 11.3553,-11.3523 3.0116,0 5.8999,1.1961 8.0294,3.325 2.1295,2.129 3.3259,5.0165 3.3259,8.0273 0,6.2697 -5.084,11.3522 -11.3553,11.3522 -2.1572,-0.0078 -4.2675,-0.6297 -6.084,-1.7929 0.134,0.0936 0.27,0.1843 0.4079,0.2721 l -5.675,9.7752 c 3.4458,2.0116 7.3609,3.0801 11.3511,3.0979 12.5427,0 22.7106,-10.1651 22.7106,-22.7045 0,-6.0216 -2.3927,-11.7966 -6.6518,-16.0545 -4.2591,-4.2579 -10.0356,-6.65 -16.0588,-6.65 z" /></g></g><path
           id="path13-7"
           style="fill:#01579b;fill-opacity:1;stroke-width:0.52702"
           d="m 50.308943,68.065657 a 22.710615,22.704519 0 0 1 -1.681653,-0.02447 22.710615,22.704519 0 0 0 1.011512,0.07237 22.710615,22.704519 0 0 0 0.670141,-0.04789 z" /><path
           id="path12-8"
           style="fill:#01579b;fill-opacity:1;stroke-width:0.52702"
           d="m 72.345157,45.349789 a 22.710615,22.704519 0 0 1 6.86e-4,0.112458 22.710615,22.704519 0 0 0 0.0037,-0.05321 22.710615,22.704519 0 0 0 -0.0043,-0.05924 z" /><rect
           style="fill:#01579b;fill-opacity:1;stroke-width:0.424334"
           id="rect8-3"
           width="9.0842457"
           height="68.113556"
           x="13.010015"
           y="-9.0573428e-07" /><g
           id="g5"
           transform="matrix(1,0,0,-1,-0.52916663,25.806889)"><path
             id="path10-4"
             style="fill:#01579b;fill-opacity:1;stroke-width:0.52702"
             d="m 39.243563,25.708439 a 22.710615,22.704519 0 0 0 -1.377188,0.09845 22.710615,22.704519 0 0 1 1.710751,-0.07468 22.710615,22.704519 0 0 0 -0.333563,-0.02379 z" /><path
             style="fill:#01579b;fill-opacity:1;stroke-width:0.2103"
             id="path32-2-9"
             sodipodi:type="arc"
             sodipodi:cx="38.721752"
             sodipodi:cy="12.903444"
             sodipodi:rx="12.906908"
             sodipodi:ry="12.903444"
             sodipodi:start="0.082759149"
             sodipodi:end="0.082062776"
             sodipodi:open="true"
             sodipodi:arc-type="arc"
             d="M 51.584485,13.970104 A 12.906908,12.903444 0 0 1 37.657046,25.762911 12.906908,12.903444 0 0 1 25.858648,11.841262 12.906908,12.903444 0 0 1 39.78198,0.04360778 12.906908,12.903444 0 0 1 51.585225,13.961149" /><path
             style="fill:#80cbc4;fill-opacity:1;stroke-width:0.2103"
             id="path32-2-9-0"
             sodipodi:type="arc"
             sodipodi:cx="-90.307426"
             sodipodi:cy="23.621155"
             sodipodi:rx="12.906908"
             sodipodi:ry="12.903444"
             sodipodi:start="0.082759149"
             sodipodi:end="0.082062776"
             sodipodi:open="true"
             sodipodi:arc-type="arc"
             d="m -77.444693,24.687814 a 12.906908,12.903444 0 0 1 -13.92744,11.792807 12.906908,12.903444 0 0 1 -11.798397,-13.921648 12.906908,12.903444 0 0 1 13.923331,-11.797655 12.906908,12.903444 0 0 1 11.803245,13.917541"
             clip-path="url(#clipPath5)"
             transform="translate(129.02918,-10.71771)" /></g></g></g></g><g
     id="webslicer-layer"
     inkscape:label="Web Slicer"
     inkscape:groupmode="layer" /></svg>
